<?xml version="1.0" encoding="utf-8"?>
<svg xmlns="http://www.w3.org/2000/svg"
	xmlns:xlink="http://www.w3.org/1999/xlink"
	width="47px" height="47px" viewBox="0 0 47 47">
<path fillRule="evenodd" d="M 23.5 47C 10.54 47-0 36.46-0 23.5-0 10.54 10.54-0 23.5-0 36.46-0 47 10.54 47 23.5 47 36.46 36.46 47 23.5 47ZM 23.5 1C 11.09 1 1 11.09 1 23.5 1 35.91 11.09 46 23.5 46 35.91 46 46 35.91 46 23.5 46 11.09 35.91 1 23.5 1ZM 27.13 20.75C 27.69 21.14 28.55 21.5 29.71 21.82 30.61 22.08 31.4 22.36 32.06 22.68 32.72 22.99 33.27 23.34 33.71 23.74 34.14 24.13 34.47 24.58 34.68 25.07 34.9 25.57 35 26.13 35 26.75 35 27.4 34.87 27.99 34.6 28.51 34.33 29.04 33.95 29.48 33.45 29.85 32.96 30.21 32.35 30.5 31.65 30.69 30.94 30.89 30.16 30.98 29.29 30.98 28.52 30.98 27.76 30.88 27.01 30.68 26.26 30.48 25.58 30.17 24.99 29.76 24.39 29.35 23.91 28.84 23.55 28.23 23.18 27.62 23 26.9 23 26.07 23 26.07 25.79 26.07 25.79 26.07 25.79 26.56 25.88 26.98 26.06 27.34 26.24 27.69 26.49 27.98 26.8 28.2 27.11 28.43 27.48 28.59 27.91 28.69 28.34 28.8 28.8 28.85 29.29 28.85 30.26 28.85 30.99 28.66 31.48 28.28 31.97 27.9 32.21 27.39 32.21 26.77 32.21 26.45 32.16 26.17 32.07 25.93 31.97 25.68 31.8 25.46 31.54 25.25 31.29 25.04 30.94 24.85 30.5 24.66 30.05 24.47 29.48 24.27 28.78 24.06 28.02 23.84 27.31 23.59 26.66 23.31 26.02 23.02 25.46 22.69 24.99 22.31 24.53 21.94 24.16 21.5 23.9 21.01 23.63 20.52 23.5 19.96 23.5 19.32 23.5 18.7 23.64 18.12 23.91 17.59 24.19 17.07 24.58 16.61 25.08 16.23 25.58 15.84 26.17 15.54 26.87 15.33 27.57 15.11 28.34 15.01 29.19 15.01 30.09 15.01 30.91 15.13 31.63 15.39 32.35 15.64 32.96 15.98 33.45 16.42 33.95 16.85 34.33 17.36 34.59 17.93 34.86 18.5 34.99 19.11 34.99 19.76 34.99 19.76 32.21 19.76 32.21 19.76 32.21 19.38 32.15 19.04 32.03 18.72 31.91 18.4 31.72 18.13 31.47 17.9 31.22 17.67 30.91 17.49 30.52 17.36 30.14 17.23 29.69 17.17 29.17 17.17 28.68 17.17 28.25 17.22 27.89 17.33 27.53 17.43 27.23 17.58 26.99 17.77 26.75 17.97 26.57 18.19 26.46 18.46 26.35 18.72 26.29 19.01 26.29 19.31 26.29 19.89 26.57 20.37 27.13 20.75ZM 18.59 29.7C 18.15 30.11 17.62 30.44 17.01 30.65 16.4 30.87 15.73 30.98 15.01 30.98 14.28 30.98 13.61 30.89 13 30.7 12.39 30.52 11.86 30.23 11.42 29.84 10.97 29.45 10.63 28.96 10.38 28.36 10.13 27.77 10.01 27.08 10.01 26.28 10.01 26.28 12.66 26.28 12.66 26.28 12.66 26.73 12.71 27.12 12.83 27.44 12.95 27.76 13.11 28.02 13.31 28.22 13.52 28.42 13.77 28.56 14.05 28.66 14.34 28.75 14.66 28.8 15.01 28.8 15.35 28.8 15.67 28.74 15.96 28.62 16.24 28.5 16.49 28.32 16.7 28.09 16.91 27.86 17.07 27.58 17.18 27.24 17.3 26.9 17.36 26.51 17.36 26.06 17.36 26.06 17.36 15 17.36 15 17.36 15 20 15 20 15 20 15 20 26.06 20 26.06 20 26.84 19.88 27.54 19.63 28.15 19.38 28.76 19.04 29.28 18.59 29.7Z" fill="rgb(157,157,157)"/></svg>