<?xml version="1.0" encoding="utf-8"?>
<svg xmlns="http://www.w3.org/2000/svg"
	xmlns:xlink="http://www.w3.org/1999/xlink"
	width="23px" height="26px" viewBox="0 0 23 26">
<clipPath id="clip0"><path fillRule="evenodd" d="M 22.79 14.84C 22.79 20.92 17.87 25.84 11.8 25.84 5.72 25.84 0.8 20.92 0.8 14.84 0.8 10.63 3.17 6.98 6.65 5.13 6.65 5.13 10.37 1.42 10.37 1.42 11.15 0.64 12.41 0.64 13.19 1.42 13.19 1.42 16.88 5.1 16.88 5.1 20.39 6.94 22.79 10.61 22.79 14.84Z"/></clipPath><defs>
<symbol id="symbol0"><path fillRule="evenodd" d="M 22.79 14.84C 22.79 20.92 17.87 25.84 11.8 25.84 5.72 25.84 0.8 20.92 0.8 14.84 0.8 10.63 3.17 6.98 6.65 5.13 6.65 5.13 10.37 1.42 10.37 1.42 11.15 0.64 12.41 0.64 13.19 1.42 13.19 1.42 16.88 5.1 16.88 5.1 20.39 6.94 22.79 10.61 22.79 14.84Z"/></symbol></defs>
<g><use xlink:href="#symbol0" x="0" y="0" width="23" height="26" fill="rgb(255,255,255)"/><use xlink:href="#symbol0" x="0" y="0" width="23" height="26" fill="none" stroke="rgb(175,175,175)" stroke-width="2.00px" clip-path="url(#clip0)"/></g></svg>